<?xml version="1.0" encoding="UTF-8" standalone="no"?><svg xmlns="http://www.w3.org/2000/svg" xmlns:xlink="http://www.w3.org/1999/xlink" contentStyleType="text/css" height="435px" preserveAspectRatio="none" style="width:394px;height:435px;background:#FFFFFF;" version="1.1" viewBox="0 0 394 435" width="394px" zoomAndPan="magnify"><defs/><g><!--cluster BusinessLogic--><g id="cluster_BusinessLogic"><path d="M8.5,96 L122.5,96 A3.75,3.75 0 0 1 125,98.5 L132,118.2969 L337.5,118.2969 A2.5,2.5 0 0 1 340,120.7969 L340,333.5 A2.5,2.5 0 0 1 337.5,336 L8.5,336 A2.5,2.5 0 0 1 6,333.5 L6,98.5 A2.5,2.5 0 0 1 8.5,96 " fill="none" style="stroke:#000000;stroke-width:1.5;"/><line style="stroke:#000000;stroke-width:1.5;" x1="6" x2="132" y1="118.2969" y2="118.2969"/><text fill="#000000" font-family="sans-serif" font-size="14" font-weight="bold" lengthAdjust="spacing" textLength="113" x="10" y="110.9951">BusinessLogic</text></g><!--class BusinessLogic--><g id="elem_BusinessLogic"><rect codeLine="3" fill="#F1F1F1" height="80.5938" id="BusinessLogic" rx="2.5" ry="2.5" style="stroke:#181818;stroke-width:0.5;" width="301" x="22.5" y="131"/><ellipse cx="118.75" cy="147" fill="#ADD1B2" rx="11" ry="11" style="stroke:#181818;stroke-width:1.0;"/><path d="M121.7188,152.6406 Q121.1406,152.9375 120.5,153.0781 Q119.8594,153.2344 119.1563,153.2344 Q116.6563,153.2344 115.3281,151.5938 Q114.0156,149.9375 114.0156,146.8125 Q114.0156,143.6875 115.3281,142.0313 Q116.6563,140.375 119.1563,140.375 Q119.8594,140.375 120.5,140.5313 Q121.1563,140.6875 121.7188,140.9844 L121.7188,143.7031 Q121.0938,143.125 120.5,142.8594 Q119.9063,142.5781 119.2813,142.5781 Q117.9375,142.5781 117.25,143.6563 Q116.5625,144.7188 116.5625,146.8125 Q116.5625,148.9063 117.25,149.9844 Q117.9375,151.0469 119.2813,151.0469 Q119.9063,151.0469 120.5,150.7813 Q121.0938,150.5 121.7188,149.9219 L121.7188,152.6406 Z " fill="#000000"/><text fill="#000000" font-family="sans-serif" font-size="14" lengthAdjust="spacing" textLength="100" x="139.25" y="151.8467">BusinessLogic</text><line style="stroke:#181818;stroke-width:0.5;" x1="23.5" x2="322.5" y1="163" y2="163"/><text fill="#000000" font-family="sans-serif" font-size="14" lengthAdjust="spacing" textLength="220" x="28.5" y="179.9951">private AlertSender alertSender;</text><line style="stroke:#181818;stroke-width:0.5;" x1="23.5" x2="322.5" y1="187.2969" y2="187.2969"/><text fill="#000000" font-family="sans-serif" font-size="14" lengthAdjust="spacing" textLength="289" x="28.5" y="204.292">public BusinessLogic(AlertSender sender)</text></g><!--class AlertSender--><g id="elem_AlertSender"><rect codeLine="7" fill="#F1F1F1" height="48" id="AlertSender" rx="2.5" ry="2.5" style="stroke:#181818;stroke-width:0.5;" width="114" x="163" y="272"/><ellipse cx="178" cy="288" fill="#B4A7E5" rx="11" ry="11" style="stroke:#181818;stroke-width:1.0;"/><path d="M173.9219,283.7656 L173.9219,281.6094 L181.3125,281.6094 L181.3125,283.7656 L178.8438,283.7656 L178.8438,291.8438 L181.3125,291.8438 L181.3125,294 L173.9219,294 L173.9219,291.8438 L176.3906,291.8438 L176.3906,283.7656 L173.9219,283.7656 Z " fill="#000000"/><text fill="#000000" font-family="sans-serif" font-size="14" font-style="italic" lengthAdjust="spacing" textLength="82" x="192" y="292.8467">AlertSender</text><line style="stroke:#181818;stroke-width:0.5;" x1="164" x2="276" y1="304" y2="304"/><line style="stroke:#181818;stroke-width:0.5;" x1="164" x2="276" y1="312" y2="312"/></g><!--class SmsSender--><g id="elem_SmsSender"><rect codeLine="10" fill="#F1F1F1" height="48" id="SmsSender" rx="2.5" ry="2.5" style="stroke:#181818;stroke-width:0.5;" width="112" x="266" y="380"/><ellipse cx="281" cy="396" fill="#ADD1B2" rx="11" ry="11" style="stroke:#181818;stroke-width:1.0;"/><path d="M283.9688,401.6406 Q283.3906,401.9375 282.75,402.0781 Q282.1094,402.2344 281.4063,402.2344 Q278.9063,402.2344 277.5781,400.5938 Q276.2656,398.9375 276.2656,395.8125 Q276.2656,392.6875 277.5781,391.0313 Q278.9063,389.375 281.4063,389.375 Q282.1094,389.375 282.75,389.5313 Q283.4063,389.6875 283.9688,389.9844 L283.9688,392.7031 Q283.3438,392.125 282.75,391.8594 Q282.1563,391.5781 281.5313,391.5781 Q280.1875,391.5781 279.5,392.6563 Q278.8125,393.7188 278.8125,395.8125 Q278.8125,397.9063 279.5,398.9844 Q280.1875,400.0469 281.5313,400.0469 Q282.1563,400.0469 282.75,399.7813 Q283.3438,399.5 283.9688,398.9219 L283.9688,401.6406 Z " fill="#000000"/><text fill="#000000" font-family="sans-serif" font-size="14" lengthAdjust="spacing" textLength="80" x="295" y="400.8467">SmsSender</text><line style="stroke:#181818;stroke-width:0.5;" x1="267" x2="377" y1="412" y2="412"/><line style="stroke:#181818;stroke-width:0.5;" x1="267" x2="377" y1="420" y2="420"/></g><!--class Main--><g id="elem_Main"><rect codeLine="13" fill="#F1F1F1" height="64.2969" id="Main" rx="2.5" ry="2.5" style="stroke:#181818;stroke-width:0.5;" width="173" x="188.5" y="7"/><ellipse cx="254.75" cy="23" fill="#ADD1B2" rx="11" ry="11" style="stroke:#181818;stroke-width:1.0;"/><path d="M257.7188,28.6406 Q257.1406,28.9375 256.5,29.0781 Q255.8594,29.2344 255.1563,29.2344 Q252.6563,29.2344 251.3281,27.5938 Q250.0156,25.9375 250.0156,22.8125 Q250.0156,19.6875 251.3281,18.0313 Q252.6563,16.375 255.1563,16.375 Q255.8594,16.375 256.5,16.5313 Q257.1563,16.6875 257.7188,16.9844 L257.7188,19.7031 Q257.0938,19.125 256.5,18.8594 Q255.9063,18.5781 255.2813,18.5781 Q253.9375,18.5781 253.25,19.6563 Q252.5625,20.7188 252.5625,22.8125 Q252.5625,24.9063 253.25,25.9844 Q253.9375,27.0469 255.2813,27.0469 Q255.9063,27.0469 256.5,26.7813 Q257.0938,26.5 257.7188,25.9219 L257.7188,28.6406 Z " fill="#000000"/><text fill="#000000" font-family="sans-serif" font-size="14" lengthAdjust="spacing" textLength="32" x="275.25" y="27.8467">Main</text><line style="stroke:#181818;stroke-width:0.5;" x1="189.5" x2="360.5" y1="39" y2="39"/><line style="stroke:#181818;stroke-width:0.5;" x1="189.5" x2="360.5" y1="47" y2="47"/><text fill="#000000" font-family="sans-serif" font-size="14" lengthAdjust="spacing" textLength="161" x="194.5" y="63.9951">public static void main()</text></g><!--reverse link AlertSender to SmsSender--><g id="link_AlertSender_SmsSender"><path d="M257.03,335.48 C271.32,350.33 287.19,366.82 299.67,379.79 " fill="none" id="AlertSender-backto-SmsSender" style="stroke:#181818;stroke-width:1.0;stroke-dasharray:7.0,7.0;"/><polygon fill="none" points="252.26,340.62,243.43,321.35,262.35,330.91,252.26,340.62" style="stroke:#181818;stroke-width:1.0;"/></g><!--link BusinessLogic to AlertSender--><g id="link_BusinessLogic_AlertSender"><path codeLine="17" d="M188.26,212.27 C194.99,229.82 202.76,250.06 208.92,266.12 " fill="none" id="BusinessLogic-to-AlertSender" style="stroke:#181818;stroke-width:1.0;stroke-dasharray:7.0,7.0;"/><polygon fill="#181818" points="210.57,270.43,211.0665,260.5937,208.7722,265.7644,203.6015,263.4701,210.57,270.43" style="stroke:#181818;stroke-width:1.0;"/></g><!--link Main to BusinessLogic--><g id="link_Main_BusinessLogic"><path codeLine="18" d="M250.57,71.26 C237.85,87.52 222.08,107.7 208.09,125.6 " fill="none" id="Main-to-BusinessLogic" style="stroke:#181818;stroke-width:1.0;stroke-dasharray:7.0,7.0;"/><polygon fill="#181818" points="205.13,129.4,213.8349,124.793,208.2185,125.4679,207.5436,119.8515,205.13,129.4" style="stroke:#181818;stroke-width:1.0;"/></g><!--link Main to SmsSender--><g id="link_Main_SmsSender"><path codeLine="19" d="M327.69,71.36 C332.61,76.32 336.9,81.86 340,88 C387.98,183.07 352.7,315.42 332.95,373.59 " fill="none" id="Main-to-SmsSender" style="stroke:#181818;stroke-width:1.0;stroke-dasharray:7.0,7.0;"/><polygon fill="#181818" points="331.36,378.22,338.0727,371.0131,332.9882,373.4925,330.5088,368.408,331.36,378.22" style="stroke:#181818;stroke-width:1.0;"/></g><!--SRC=[NOun3i8m34Ntd29ZMNe192IOOUe9J6egYoIDOhTBrBkJefOcJBQU__V_0SmR1jItYSaZytqSo2HbB33_mn1f1a5zjHYbGzzZr73iPnMcfoLJsvfIpTznKeiYBnXVOAflcM_9dUFDGYvOTEY5IsKwf0yWd_Pe5f0yvf5wxVAXMRDKLQXjBsNaQi-eakpmrq9z0000]--></g></svg>