<?xml version="1.0" encoding="UTF-8" standalone="no"?><svg xmlns="http://www.w3.org/2000/svg" xmlns:xlink="http://www.w3.org/1999/xlink" contentStyleType="text/css" height="204px" preserveAspectRatio="none" style="width:177px;height:204px;background:#FFFFFF;" version="1.1" viewBox="0 0 177 204" width="177px" zoomAndPan="magnify"><defs/><g><!--cluster BusinessLogic--><g id="cluster_BusinessLogic"><path d="M8.5,6 L122.5,6 A3.75,3.75 0 0 1 125,8.5 L132,28.2969 L167.5,28.2969 A2.5,2.5 0 0 1 170,30.7969 L170,102.5 A2.5,2.5 0 0 1 167.5,105 L8.5,105 A2.5,2.5 0 0 1 6,102.5 L6,8.5 A2.5,2.5 0 0 1 8.5,6 " fill="none" style="stroke:#000000;stroke-width:1.5;"/><line style="stroke:#000000;stroke-width:1.5;" x1="6" x2="132" y1="28.2969" y2="28.2969"/><text fill="#000000" font-family="sans-serif" font-size="14" font-weight="bold" lengthAdjust="spacing" textLength="113" x="10" y="20.9951">BusinessLogic</text></g><!--class BusinessLogic--><g id="elem_BusinessLogic"><rect codeLine="3" fill="#F1F1F1" height="48" id="BusinessLogic" rx="2.5" ry="2.5" style="stroke:#181818;stroke-width:0.5;" width="132" x="22" y="41"/><ellipse cx="37" cy="57" fill="#ADD1B2" rx="11" ry="11" style="stroke:#181818;stroke-width:1.0;"/><path d="M39.9688,62.6406 Q39.3906,62.9375 38.75,63.0781 Q38.1094,63.2344 37.4063,63.2344 Q34.9063,63.2344 33.5781,61.5938 Q32.2656,59.9375 32.2656,56.8125 Q32.2656,53.6875 33.5781,52.0313 Q34.9063,50.375 37.4063,50.375 Q38.1094,50.375 38.75,50.5313 Q39.4063,50.6875 39.9688,50.9844 L39.9688,53.7031 Q39.3438,53.125 38.75,52.8594 Q38.1563,52.5781 37.5313,52.5781 Q36.1875,52.5781 35.5,53.6563 Q34.8125,54.7188 34.8125,56.8125 Q34.8125,58.9063 35.5,59.9844 Q36.1875,61.0469 37.5313,61.0469 Q38.1563,61.0469 38.75,60.7813 Q39.3438,60.5 39.9688,59.9219 L39.9688,62.6406 Z " fill="#000000"/><text fill="#000000" font-family="sans-serif" font-size="14" lengthAdjust="spacing" textLength="100" x="51" y="61.8467">BusinessLogic</text><line style="stroke:#181818;stroke-width:0.5;" x1="23" x2="153" y1="73" y2="73"/><line style="stroke:#181818;stroke-width:0.5;" x1="23" x2="153" y1="81" y2="81"/></g><!--class SmsSender--><g id="elem_SmsSender"><rect codeLine="6" fill="#F1F1F1" height="48" id="SmsSender" rx="2.5" ry="2.5" style="stroke:#181818;stroke-width:0.5;" width="112" x="32" y="149"/><ellipse cx="47" cy="165" fill="#ADD1B2" rx="11" ry="11" style="stroke:#181818;stroke-width:1.0;"/><path d="M49.9688,170.6406 Q49.3906,170.9375 48.75,171.0781 Q48.1094,171.2344 47.4063,171.2344 Q44.9063,171.2344 43.5781,169.5938 Q42.2656,167.9375 42.2656,164.8125 Q42.2656,161.6875 43.5781,160.0313 Q44.9063,158.375 47.4063,158.375 Q48.1094,158.375 48.75,158.5313 Q49.4063,158.6875 49.9688,158.9844 L49.9688,161.7031 Q49.3438,161.125 48.75,160.8594 Q48.1563,160.5781 47.5313,160.5781 Q46.1875,160.5781 45.5,161.6563 Q44.8125,162.7188 44.8125,164.8125 Q44.8125,166.9063 45.5,167.9844 Q46.1875,169.0469 47.5313,169.0469 Q48.1563,169.0469 48.75,168.7813 Q49.3438,168.5 49.9688,167.9219 L49.9688,170.6406 Z " fill="#000000"/><text fill="#000000" font-family="sans-serif" font-size="14" lengthAdjust="spacing" textLength="80" x="61" y="169.8467">SmsSender</text><line style="stroke:#181818;stroke-width:0.5;" x1="33" x2="143" y1="181" y2="181"/><line style="stroke:#181818;stroke-width:0.5;" x1="33" x2="143" y1="189" y2="189"/></g><!--link BusinessLogic to SmsSender--><g id="link_BusinessLogic_SmsSender"><path codeLine="9" d="M77.23,89.26 C74.9,104.86 74.62,125.55 76.42,142.34 " fill="none" id="BusinessLogic-to-SmsSender" style="stroke:#181818;stroke-width:1.0;stroke-dasharray:7.0,7.0;"/><polygon fill="#181818" points="77.05,147.29,79.8861,137.8583,76.421,142.3297,71.9496,138.8647,77.05,147.29" style="stroke:#181818;stroke-width:1.0;"/></g><!--link BusinessLogic to SmsSender--><g id="link_BusinessLogic_SmsSender"><path codeLine="10" d="M99.4,89.26 C101.9,105 102.17,125.92 100.21,142.78 " fill="none" id="BusinessLogic-to-SmsSender-1" style="stroke:#181818;stroke-width:1.0;"/><polygon fill="#181818" points="99.59,147.29,104.7855,138.923,100.2751,142.3372,96.8609,137.8268,99.59,147.29" style="stroke:#181818;stroke-width:1.0;"/></g><!--SRC=[AqXCpavCJrLmAYtEp4ijBlR9JyzChkPApaaiBaONh0L2Y4HmRd5mQbvAQX58a0j5cPwU7LmMLKPN5qa60000]--></g></svg>