<?xml version="1.0" encoding="UTF-8" standalone="no"?><svg xmlns="http://www.w3.org/2000/svg" xmlns:xlink="http://www.w3.org/1999/xlink" contentStyleType="text/css" height="312px" preserveAspectRatio="none" style="width:201px;height:312px;background:#FFFFFF;" version="1.1" viewBox="0 0 201 312" width="201px" zoomAndPan="magnify"><defs/><g><!--cluster BusinessLogic--><g id="cluster_BusinessLogic"><path d="M8.5,6 L122.5,6 A3.75,3.75 0 0 1 125,8.5 L132,28.2969 L167.5,28.2969 A2.5,2.5 0 0 1 170,30.7969 L170,210.5 A2.5,2.5 0 0 1 167.5,213 L8.5,213 A2.5,2.5 0 0 1 6,210.5 L6,8.5 A2.5,2.5 0 0 1 8.5,6 " fill="none" style="stroke:#000000;stroke-width:1.5;"/><line style="stroke:#000000;stroke-width:1.5;" x1="6" x2="132" y1="28.2969" y2="28.2969"/><text fill="#000000" font-family="sans-serif" font-size="14" font-weight="bold" lengthAdjust="spacing" textLength="113" x="10" y="20.9951">BusinessLogic</text></g><!--class BusinessLogic--><g id="elem_BusinessLogic"><rect codeLine="3" fill="#F1F1F1" height="48" id="BusinessLogic" rx="2.5" ry="2.5" style="stroke:#181818;stroke-width:0.5;" width="132" x="22" y="41"/><ellipse cx="37" cy="57" fill="#ADD1B2" rx="11" ry="11" style="stroke:#181818;stroke-width:1.0;"/><path d="M39.9688,62.6406 Q39.3906,62.9375 38.75,63.0781 Q38.1094,63.2344 37.4063,63.2344 Q34.9063,63.2344 33.5781,61.5938 Q32.2656,59.9375 32.2656,56.8125 Q32.2656,53.6875 33.5781,52.0313 Q34.9063,50.375 37.4063,50.375 Q38.1094,50.375 38.75,50.5313 Q39.4063,50.6875 39.9688,50.9844 L39.9688,53.7031 Q39.3438,53.125 38.75,52.8594 Q38.1563,52.5781 37.5313,52.5781 Q36.1875,52.5781 35.5,53.6563 Q34.8125,54.7188 34.8125,56.8125 Q34.8125,58.9063 35.5,59.9844 Q36.1875,61.0469 37.5313,61.0469 Q38.1563,61.0469 38.75,60.7813 Q39.3438,60.5 39.9688,59.9219 L39.9688,62.6406 Z " fill="#000000"/><text fill="#000000" font-family="sans-serif" font-size="14" lengthAdjust="spacing" textLength="100" x="51" y="61.8467">BusinessLogic</text><line style="stroke:#181818;stroke-width:0.5;" x1="23" x2="153" y1="73" y2="73"/><line style="stroke:#181818;stroke-width:0.5;" x1="23" x2="153" y1="81" y2="81"/></g><!--class AlertSender--><g id="elem_AlertSender"><rect codeLine="5" fill="#F1F1F1" height="48" id="AlertSender" rx="2.5" ry="2.5" style="stroke:#181818;stroke-width:0.5;" width="114" x="26" y="149"/><ellipse cx="41" cy="165" fill="#B4A7E5" rx="11" ry="11" style="stroke:#181818;stroke-width:1.0;"/><path d="M36.9219,160.7656 L36.9219,158.6094 L44.3125,158.6094 L44.3125,160.7656 L41.8438,160.7656 L41.8438,168.8438 L44.3125,168.8438 L44.3125,171 L36.9219,171 L36.9219,168.8438 L39.3906,168.8438 L39.3906,160.7656 L36.9219,160.7656 Z " fill="#000000"/><text fill="#000000" font-family="sans-serif" font-size="14" font-style="italic" lengthAdjust="spacing" textLength="82" x="55" y="169.8467">AlertSender</text><line style="stroke:#181818;stroke-width:0.5;" x1="27" x2="139" y1="181" y2="181"/><line style="stroke:#181818;stroke-width:0.5;" x1="27" x2="139" y1="189" y2="189"/></g><!--class SmsSender--><g id="elem_SmsSender"><rect codeLine="7" fill="#F1F1F1" height="48" id="SmsSender" rx="2.5" ry="2.5" style="stroke:#181818;stroke-width:0.5;" width="112" x="82" y="257"/><ellipse cx="97" cy="273" fill="#ADD1B2" rx="11" ry="11" style="stroke:#181818;stroke-width:1.0;"/><path d="M99.9688,278.6406 Q99.3906,278.9375 98.75,279.0781 Q98.1094,279.2344 97.4063,279.2344 Q94.9063,279.2344 93.5781,277.5938 Q92.2656,275.9375 92.2656,272.8125 Q92.2656,269.6875 93.5781,268.0313 Q94.9063,266.375 97.4063,266.375 Q98.1094,266.375 98.75,266.5313 Q99.4063,266.6875 99.9688,266.9844 L99.9688,269.7031 Q99.3438,269.125 98.75,268.8594 Q98.1563,268.5781 97.5313,268.5781 Q96.1875,268.5781 95.5,269.6563 Q94.8125,270.7188 94.8125,272.8125 Q94.8125,274.9063 95.5,275.9844 Q96.1875,277.0469 97.5313,277.0469 Q98.1563,277.0469 98.75,276.7813 Q99.3438,276.5 99.9688,275.9219 L99.9688,278.6406 Z " fill="#000000"/><text fill="#000000" font-family="sans-serif" font-size="14" lengthAdjust="spacing" textLength="80" x="111" y="277.8467">SmsSender</text><line style="stroke:#181818;stroke-width:0.5;" x1="83" x2="193" y1="289" y2="289"/><line style="stroke:#181818;stroke-width:0.5;" x1="83" x2="193" y1="297" y2="297"/></g><!--reverse link AlertSender to SmsSender--><g id="link_AlertSender_SmsSender"><path d="M104.95,216.31 C112.11,230.11 119.8,244.93 125.96,256.79 " fill="none" id="AlertSender-backto-SmsSender" style="stroke:#181818;stroke-width:1.0;stroke-dasharray:7.0,7.0;"/><polygon fill="none" points="98.76,219.58,95.77,198.61,111.19,213.13,98.76,219.58" style="stroke:#181818;stroke-width:1.0;"/></g><!--link BusinessLogic to AlertSender--><g id="link_BusinessLogic_AlertSender"><path codeLine="10" d="M86.9,89.26 C86.17,104.86 85.19,125.55 84.4,142.34 " fill="none" id="BusinessLogic-to-AlertSender" style="stroke:#181818;stroke-width:1.0;stroke-dasharray:7.0,7.0;"/><polygon fill="#181818" points="84.17,147.28,88.6019,138.4847,84.4126,142.2859,80.6113,138.0965,84.17,147.28" style="stroke:#181818;stroke-width:1.0;"/></g><!--link BusinessLogic to SmsSender--><g id="link_BusinessLogic_SmsSender"><path codeLine="11" d="M115.71,89.45 C131.39,104.62 149.53,125.81 158,149 C170.26,182.55 160.29,223.59 150.55,250.69 " fill="none" id="BusinessLogic-to-SmsSender" style="stroke:#181818;stroke-width:1.0;"/><polygon fill="#181818" points="148.88,255.18,155.7666,248.1391,150.6231,250.4937,148.2685,245.3501,148.88,255.18" style="stroke:#181818;stroke-width:1.0;"/></g><!--SRC=[AqXCpavCJrLmAYtEp4ijBlR9JyzChkPApaaiBaONhENAp2j9BKfBJ4vLSCn9BIe9JirBIIq2YaEK1-SMGqGKCdCBSb9pK_DAYf4LWapWGZ5JJyyEsI0KELrTExY1N000]--></g></svg>