<?xml version="1.0" encoding="UTF-8" standalone="no"?><svg xmlns="http://www.w3.org/2000/svg" xmlns:xlink="http://www.w3.org/1999/xlink" contentStyleType="text/css" height="312px" preserveAspectRatio="none" style="width:279px;height:312px;background:#FFFFFF;" version="1.1" viewBox="0 0 279 312" width="279px" zoomAndPan="magnify"><defs/><g><!--cluster BusinessLogic--><g id="cluster_BusinessLogic"><path d="M58.5,6 L172.5,6 A3.75,3.75 0 0 1 175,8.5 L182,28.2969 L217.5,28.2969 A2.5,2.5 0 0 1 220,30.7969 L220,210.5 A2.5,2.5 0 0 1 217.5,213 L58.5,213 A2.5,2.5 0 0 1 56,210.5 L56,8.5 A2.5,2.5 0 0 1 58.5,6 " fill="none" style="stroke:#000000;stroke-width:1.5;"/><line style="stroke:#000000;stroke-width:1.5;" x1="56" x2="182" y1="28.2969" y2="28.2969"/><text fill="#000000" font-family="sans-serif" font-size="14" font-weight="bold" lengthAdjust="spacing" textLength="113" x="60" y="20.9951">BusinessLogic</text></g><!--class BusinessLogic--><g id="elem_BusinessLogic"><rect codeLine="3" fill="#F1F1F1" height="48" id="BusinessLogic" rx="2.5" ry="2.5" style="stroke:#181818;stroke-width:0.5;" width="132" x="72" y="41"/><ellipse cx="87" cy="57" fill="#ADD1B2" rx="11" ry="11" style="stroke:#181818;stroke-width:1.0;"/><path d="M89.9688,62.6406 Q89.3906,62.9375 88.75,63.0781 Q88.1094,63.2344 87.4063,63.2344 Q84.9063,63.2344 83.5781,61.5938 Q82.2656,59.9375 82.2656,56.8125 Q82.2656,53.6875 83.5781,52.0313 Q84.9063,50.375 87.4063,50.375 Q88.1094,50.375 88.75,50.5313 Q89.4063,50.6875 89.9688,50.9844 L89.9688,53.7031 Q89.3438,53.125 88.75,52.8594 Q88.1563,52.5781 87.5313,52.5781 Q86.1875,52.5781 85.5,53.6563 Q84.8125,54.7188 84.8125,56.8125 Q84.8125,58.9063 85.5,59.9844 Q86.1875,61.0469 87.5313,61.0469 Q88.1563,61.0469 88.75,60.7813 Q89.3438,60.5 89.9688,59.9219 L89.9688,62.6406 Z " fill="#000000"/><text fill="#000000" font-family="sans-serif" font-size="14" lengthAdjust="spacing" textLength="100" x="101" y="61.8467">BusinessLogic</text><line style="stroke:#181818;stroke-width:0.5;" x1="73" x2="203" y1="73" y2="73"/><line style="stroke:#181818;stroke-width:0.5;" x1="73" x2="203" y1="81" y2="81"/></g><!--class AlertSender--><g id="elem_AlertSender"><rect codeLine="5" fill="#F1F1F1" height="48" id="AlertSender" rx="2.5" ry="2.5" style="stroke:#181818;stroke-width:0.5;" width="114" x="81" y="149"/><ellipse cx="96" cy="165" fill="#B4A7E5" rx="11" ry="11" style="stroke:#181818;stroke-width:1.0;"/><path d="M91.9219,160.7656 L91.9219,158.6094 L99.3125,158.6094 L99.3125,160.7656 L96.8438,160.7656 L96.8438,168.8438 L99.3125,168.8438 L99.3125,171 L91.9219,171 L91.9219,168.8438 L94.3906,168.8438 L94.3906,160.7656 L91.9219,160.7656 Z " fill="#000000"/><text fill="#000000" font-family="sans-serif" font-size="14" font-style="italic" lengthAdjust="spacing" textLength="82" x="110" y="169.8467">AlertSender</text><line style="stroke:#181818;stroke-width:0.5;" x1="82" x2="194" y1="181" y2="181"/><line style="stroke:#181818;stroke-width:0.5;" x1="82" x2="194" y1="189" y2="189"/></g><!--class SmsSender--><g id="elem_SmsSender"><rect codeLine="7" fill="#F1F1F1" height="48" id="SmsSender" rx="2.5" ry="2.5" style="stroke:#181818;stroke-width:0.5;" width="112" x="7" y="257"/><ellipse cx="22" cy="273" fill="#ADD1B2" rx="11" ry="11" style="stroke:#181818;stroke-width:1.0;"/><path d="M24.9688,278.6406 Q24.3906,278.9375 23.75,279.0781 Q23.1094,279.2344 22.4063,279.2344 Q19.9063,279.2344 18.5781,277.5938 Q17.2656,275.9375 17.2656,272.8125 Q17.2656,269.6875 18.5781,268.0313 Q19.9063,266.375 22.4063,266.375 Q23.1094,266.375 23.75,266.5313 Q24.4063,266.6875 24.9688,266.9844 L24.9688,269.7031 Q24.3438,269.125 23.75,268.8594 Q23.1563,268.5781 22.5313,268.5781 Q21.1875,268.5781 20.5,269.6563 Q19.8125,270.7188 19.8125,272.8125 Q19.8125,274.9063 20.5,275.9844 Q21.1875,277.0469 22.5313,277.0469 Q23.1563,277.0469 23.75,276.7813 Q24.3438,276.5 24.9688,275.9219 L24.9688,278.6406 Z " fill="#000000"/><text fill="#000000" font-family="sans-serif" font-size="14" lengthAdjust="spacing" textLength="80" x="36" y="277.8467">SmsSender</text><line style="stroke:#181818;stroke-width:0.5;" x1="8" x2="118" y1="289" y2="289"/><line style="stroke:#181818;stroke-width:0.5;" x1="8" x2="118" y1="297" y2="297"/></g><!--class EmailSender--><g id="elem_EmailSender"><rect codeLine="10" fill="#F1F1F1" height="48" id="EmailSender" rx="2.5" ry="2.5" style="stroke:#181818;stroke-width:0.5;" width="118" x="154" y="257"/><ellipse cx="169" cy="273" fill="#ADD1B2" rx="11" ry="11" style="stroke:#181818;stroke-width:1.0;"/><path d="M171.9688,278.6406 Q171.3906,278.9375 170.75,279.0781 Q170.1094,279.2344 169.4063,279.2344 Q166.9063,279.2344 165.5781,277.5938 Q164.2656,275.9375 164.2656,272.8125 Q164.2656,269.6875 165.5781,268.0313 Q166.9063,266.375 169.4063,266.375 Q170.1094,266.375 170.75,266.5313 Q171.4063,266.6875 171.9688,266.9844 L171.9688,269.7031 Q171.3438,269.125 170.75,268.8594 Q170.1563,268.5781 169.5313,268.5781 Q168.1875,268.5781 167.5,269.6563 Q166.8125,270.7188 166.8125,272.8125 Q166.8125,274.9063 167.5,275.9844 Q168.1875,277.0469 169.5313,277.0469 Q170.1563,277.0469 170.75,276.7813 Q171.3438,276.5 171.9688,275.9219 L171.9688,278.6406 Z " fill="#000000"/><text fill="#000000" font-family="sans-serif" font-size="14" lengthAdjust="spacing" textLength="86" x="183" y="277.8467">EmailSender</text><line style="stroke:#181818;stroke-width:0.5;" x1="155" x2="271" y1="289" y2="289"/><line style="stroke:#181818;stroke-width:0.5;" x1="155" x2="271" y1="297" y2="297"/></g><!--reverse link AlertSender to SmsSender--><g id="link_AlertSender_SmsSender"><path d="M109.43,214.39 C99.28,228.73 88.21,244.37 79.42,256.79 " fill="none" id="AlertSender-backto-SmsSender" style="stroke:#181818;stroke-width:1.0;stroke-dasharray:7.0,7.0;"/><polygon fill="none" points="103.4,210.78,120.67,198.5,114.83,218.87,103.4,210.78" style="stroke:#181818;stroke-width:1.0;"/></g><!--reverse link AlertSender to EmailSender--><g id="link_AlertSender_EmailSender"><path d="M166.57,214.39 C176.72,228.73 187.79,244.37 196.58,256.79 " fill="none" id="AlertSender-backto-EmailSender" style="stroke:#181818;stroke-width:1.0;stroke-dasharray:7.0,7.0;"/><polygon fill="none" points="161.17,218.87,155.33,198.5,172.6,210.78,161.17,218.87" style="stroke:#181818;stroke-width:1.0;"/></g><!--link BusinessLogic to AlertSender--><g id="link_BusinessLogic_AlertSender"><path codeLine="13" d="M138,89.26 C138,104.86 138,125.55 138,142.34 " fill="none" id="BusinessLogic-to-AlertSender" style="stroke:#181818;stroke-width:1.0;stroke-dasharray:7.0,7.0;"/><polygon fill="#181818" points="138,147.28,142,138.28,138,142.28,134,138.28,138,147.28" style="stroke:#181818;stroke-width:1.0;"/></g><!--SRC=[AqXCpavCJrLmAYtEp4ijBlR9JyzChkPApaaiBaONhENAp2j9BKfBJ4vLSCn9BIe9JirBIIq2YaEK1-SMGqGKCdCBSb9pK_DAYf4LWao0AdNDJSpC8QmOnG5wUdR8jd810000]--></g></svg>