<?xml version="1.0" encoding="UTF-8" standalone="no"?><svg xmlns="http://www.w3.org/2000/svg" xmlns:xlink="http://www.w3.org/1999/xlink" contentStyleType="text/css" height="451px" preserveAspectRatio="none" style="width:310px;height:451px;background:#FFFFFF;" version="1.1" viewBox="0 0 310 451" width="310px" zoomAndPan="magnify"><defs/><g><!--cluster BusinessLogic--><g id="cluster_BusinessLogic"><path d="M74.5,6 L188.5,6 A3.75,3.75 0 0 1 191,8.5 L198,28.2969 L233.5,28.2969 A2.5,2.5 0 0 1 236,30.7969 L236,210.5 A2.5,2.5 0 0 1 233.5,213 L74.5,213 A2.5,2.5 0 0 1 72,210.5 L72,8.5 A2.5,2.5 0 0 1 74.5,6 " fill="none" style="stroke:#000000;stroke-width:1.5;"/><line style="stroke:#000000;stroke-width:1.5;" x1="72" x2="198" y1="28.2969" y2="28.2969"/><text fill="#000000" font-family="sans-serif" font-size="14" font-weight="bold" lengthAdjust="spacing" textLength="113" x="76" y="20.9951">BusinessLogic</text></g><!--cluster Sender--><g id="cluster_Sender"><path d="M8.5,237 L66.5,237 A3.75,3.75 0 0 1 69,239.5 L76,259.2969 L300.5,259.2969 A2.5,2.5 0 0 1 303,261.7969 L303,441.5 A2.5,2.5 0 0 1 300.5,444 L8.5,444 A2.5,2.5 0 0 1 6,441.5 L6,239.5 A2.5,2.5 0 0 1 8.5,237 " fill="none" style="stroke:#000000;stroke-width:1.5;"/><line style="stroke:#000000;stroke-width:1.5;" x1="6" x2="76" y1="259.2969" y2="259.2969"/><text fill="#000000" font-family="sans-serif" font-size="14" font-weight="bold" lengthAdjust="spacing" textLength="57" x="10" y="251.9951">Sender</text></g><!--class BusinessLogic--><g id="elem_BusinessLogic"><rect codeLine="3" fill="#F1F1F1" height="48" id="BusinessLogic" rx="2.5" ry="2.5" style="stroke:#181818;stroke-width:0.5;" width="132" x="88" y="41"/><ellipse cx="103" cy="57" fill="#ADD1B2" rx="11" ry="11" style="stroke:#181818;stroke-width:1.0;"/><path d="M105.9688,62.6406 Q105.3906,62.9375 104.75,63.0781 Q104.1094,63.2344 103.4063,63.2344 Q100.9063,63.2344 99.5781,61.5938 Q98.2656,59.9375 98.2656,56.8125 Q98.2656,53.6875 99.5781,52.0313 Q100.9063,50.375 103.4063,50.375 Q104.1094,50.375 104.75,50.5313 Q105.4063,50.6875 105.9688,50.9844 L105.9688,53.7031 Q105.3438,53.125 104.75,52.8594 Q104.1563,52.5781 103.5313,52.5781 Q102.1875,52.5781 101.5,53.6563 Q100.8125,54.7188 100.8125,56.8125 Q100.8125,58.9063 101.5,59.9844 Q102.1875,61.0469 103.5313,61.0469 Q104.1563,61.0469 104.75,60.7813 Q105.3438,60.5 105.9688,59.9219 L105.9688,62.6406 Z " fill="#000000"/><text fill="#000000" font-family="sans-serif" font-size="14" lengthAdjust="spacing" textLength="100" x="117" y="61.8467">BusinessLogic</text><line style="stroke:#181818;stroke-width:0.5;" x1="89" x2="219" y1="73" y2="73"/><line style="stroke:#181818;stroke-width:0.5;" x1="89" x2="219" y1="81" y2="81"/></g><!--class AlertSender--><g id="elem_AlertSender"><rect codeLine="5" fill="#F1F1F1" height="48" id="AlertSender" rx="2.5" ry="2.5" style="stroke:#181818;stroke-width:0.5;" width="114" x="97" y="149"/><ellipse cx="112" cy="165" fill="#B4A7E5" rx="11" ry="11" style="stroke:#181818;stroke-width:1.0;"/><path d="M107.9219,160.7656 L107.9219,158.6094 L115.3125,158.6094 L115.3125,160.7656 L112.8438,160.7656 L112.8438,168.8438 L115.3125,168.8438 L115.3125,171 L107.9219,171 L107.9219,168.8438 L110.3906,168.8438 L110.3906,160.7656 L107.9219,160.7656 Z " fill="#000000"/><text fill="#000000" font-family="sans-serif" font-size="14" font-style="italic" lengthAdjust="spacing" textLength="82" x="126" y="169.8467">AlertSender</text><line style="stroke:#181818;stroke-width:0.5;" x1="98" x2="210" y1="181" y2="181"/><line style="stroke:#181818;stroke-width:0.5;" x1="98" x2="210" y1="189" y2="189"/></g><!--class MultipleAlertSender--><g id="elem_MultipleAlertSender"><rect codeLine="9" fill="#F1F1F1" height="48" id="MultipleAlertSender" rx="2.5" ry="2.5" style="stroke:#181818;stroke-width:0.5;" width="166" x="71" y="272"/><ellipse cx="86" cy="288" fill="#ADD1B2" rx="11" ry="11" style="stroke:#181818;stroke-width:1.0;"/><path d="M88.9688,293.6406 Q88.3906,293.9375 87.75,294.0781 Q87.1094,294.2344 86.4063,294.2344 Q83.9063,294.2344 82.5781,292.5938 Q81.2656,290.9375 81.2656,287.8125 Q81.2656,284.6875 82.5781,283.0313 Q83.9063,281.375 86.4063,281.375 Q87.1094,281.375 87.75,281.5313 Q88.4063,281.6875 88.9688,281.9844 L88.9688,284.7031 Q88.3438,284.125 87.75,283.8594 Q87.1563,283.5781 86.5313,283.5781 Q85.1875,283.5781 84.5,284.6563 Q83.8125,285.7188 83.8125,287.8125 Q83.8125,289.9063 84.5,290.9844 Q85.1875,292.0469 86.5313,292.0469 Q87.1563,292.0469 87.75,291.7813 Q88.3438,291.5 88.9688,290.9219 L88.9688,293.6406 Z " fill="#000000"/><text fill="#000000" font-family="sans-serif" font-size="14" lengthAdjust="spacing" textLength="134" x="100" y="292.8467">MultipleAlertSender</text><line style="stroke:#181818;stroke-width:0.5;" x1="72" x2="236" y1="304" y2="304"/><line style="stroke:#181818;stroke-width:0.5;" x1="72" x2="236" y1="312" y2="312"/></g><!--class SmsSender--><g id="elem_SmsSender"><rect codeLine="11" fill="#F1F1F1" height="48" id="SmsSender" rx="2.5" ry="2.5" style="stroke:#181818;stroke-width:0.5;" width="112" x="22" y="380"/><ellipse cx="37" cy="396" fill="#ADD1B2" rx="11" ry="11" style="stroke:#181818;stroke-width:1.0;"/><path d="M39.9688,401.6406 Q39.3906,401.9375 38.75,402.0781 Q38.1094,402.2344 37.4063,402.2344 Q34.9063,402.2344 33.5781,400.5938 Q32.2656,398.9375 32.2656,395.8125 Q32.2656,392.6875 33.5781,391.0313 Q34.9063,389.375 37.4063,389.375 Q38.1094,389.375 38.75,389.5313 Q39.4063,389.6875 39.9688,389.9844 L39.9688,392.7031 Q39.3438,392.125 38.75,391.8594 Q38.1563,391.5781 37.5313,391.5781 Q36.1875,391.5781 35.5,392.6563 Q34.8125,393.7188 34.8125,395.8125 Q34.8125,397.9063 35.5,398.9844 Q36.1875,400.0469 37.5313,400.0469 Q38.1563,400.0469 38.75,399.7813 Q39.3438,399.5 39.9688,398.9219 L39.9688,401.6406 Z " fill="#000000"/><text fill="#000000" font-family="sans-serif" font-size="14" lengthAdjust="spacing" textLength="80" x="51" y="400.8467">SmsSender</text><line style="stroke:#181818;stroke-width:0.5;" x1="23" x2="133" y1="412" y2="412"/><line style="stroke:#181818;stroke-width:0.5;" x1="23" x2="133" y1="420" y2="420"/></g><!--class EmailSender--><g id="elem_EmailSender"><rect codeLine="14" fill="#F1F1F1" height="48" id="EmailSender" rx="2.5" ry="2.5" style="stroke:#181818;stroke-width:0.5;" width="118" x="169" y="380"/><ellipse cx="184" cy="396" fill="#ADD1B2" rx="11" ry="11" style="stroke:#181818;stroke-width:1.0;"/><path d="M186.9688,401.6406 Q186.3906,401.9375 185.75,402.0781 Q185.1094,402.2344 184.4063,402.2344 Q181.9063,402.2344 180.5781,400.5938 Q179.2656,398.9375 179.2656,395.8125 Q179.2656,392.6875 180.5781,391.0313 Q181.9063,389.375 184.4063,389.375 Q185.1094,389.375 185.75,389.5313 Q186.4063,389.6875 186.9688,389.9844 L186.9688,392.7031 Q186.3438,392.125 185.75,391.8594 Q185.1563,391.5781 184.5313,391.5781 Q183.1875,391.5781 182.5,392.6563 Q181.8125,393.7188 181.8125,395.8125 Q181.8125,397.9063 182.5,398.9844 Q183.1875,400.0469 184.5313,400.0469 Q185.1563,400.0469 185.75,399.7813 Q186.3438,399.5 186.9688,398.9219 L186.9688,401.6406 Z " fill="#000000"/><text fill="#000000" font-family="sans-serif" font-size="14" lengthAdjust="spacing" textLength="86" x="198" y="400.8467">EmailSender</text><line style="stroke:#181818;stroke-width:0.5;" x1="170" x2="286" y1="412" y2="412"/><line style="stroke:#181818;stroke-width:0.5;" x1="170" x2="286" y1="420" y2="420"/></g><!--reverse link AlertSender to MultipleAlertSender--><g id="link_AlertSender_MultipleAlertSender"><path d="M154,218.57 C154,236.61 154,256.69 154,271.74 " fill="none" id="AlertSender-backto-MultipleAlertSender" style="stroke:#181818;stroke-width:1.0;stroke-dasharray:7.0,7.0;"/><polygon fill="none" points="147,218.84,154,198.84,161,218.84,147,218.84" style="stroke:#181818;stroke-width:1.0;"/></g><!--link BusinessLogic to AlertSender--><g id="link_BusinessLogic_AlertSender"><path codeLine="17" d="M154,89.26 C154,104.86 154,125.55 154,142.34 " fill="none" id="BusinessLogic-to-AlertSender" style="stroke:#181818;stroke-width:1.0;stroke-dasharray:7.0,7.0;"/><polygon fill="#181818" points="154,147.28,158,138.28,154,142.28,150,138.28,154,147.28" style="stroke:#181818;stroke-width:1.0;"/></g><!--link MultipleAlertSender to SmsSender--><g id="link_MultipleAlertSender_SmsSender"><path codeLine="18" d="M137.32,320.26 C125.84,336.28 110.51,357.65 98.32,374.66 " fill="none" id="MultipleAlertSender-to-SmsSender" style="stroke:#181818;stroke-width:1.0;stroke-dasharray:7.0,7.0;"/><polygon fill="#181818" points="95.52,378.56,104.011,373.5698,98.4302,374.4942,97.5058,368.9134,95.52,378.56" style="stroke:#181818;stroke-width:1.0;"/></g><!--link MultipleAlertSender to EmailSender--><g id="link_MultipleAlertSender_EmailSender"><path codeLine="19" d="M170.24,320.26 C181.42,336.28 196.34,357.65 208.22,374.66 " fill="none" id="MultipleAlertSender-to-EmailSender" style="stroke:#181818;stroke-width:1.0;stroke-dasharray:7.0,7.0;"/><polygon fill="#181818" points="210.93,378.55,209.0661,368.8791,208.0713,374.4478,202.5026,373.453,210.93,378.55" style="stroke:#181818;stroke-width:1.0;"/></g><!--SRC=[TOun3i8m34Ltdo8dw16GG68hKqzW1LDPE26AqwdgtN7Lj0e8vEtv-tqdz4ySoLqcvKYg_MjaFuCNLFs62t0ib1_eoPs5SXaetYaRXrGr6zdlRvCKJa9Ds74m42WMRHspERQR8MXDheKLNWEoxEx5vkEphZkrx_nejSJX_RDlAW3U]--></g></svg>